PathFileType	4	(X/Y/Z)	CPRIT_Patient3_R_HipIso_Processed.TRC
DataRate	CameraRate	NumFrames	NumMarkers	Units	OrigDataRate	OrigDataStartFrame	OrigNumFrames
150.128314798973	150.128314798973	4	39	m	150.128314798973	147	       1171
Frame#	Time	R.Heel			R.Midfoot.Superior			R.Midfoot.Lateral			R.Toe			L.Heel			L.Midfoot.Superior			L.Midfoot.Lateral			L.Toe			R.Shank.Superior			R.Shank.Inferior			R.Shank.Lateral			R.Shank.Posterior			L.Shank.Superior			L.Shank.Inferior			L.Shank.Posterior			L.Shank.Lateral			R.Patella			L.Patella			R.Thigh.Superior			R.Thigh.Lateral			R.Thigh.Inferior			L.Thigh.Superior			L.Thigh.Inferior			L.Thigh.Lateral			L.Asis			R.Asis			Sacral			R.Shoulder			L.Shoulder			C7			J.Notch			Sternum			Thoracic			L.Elbow			L.Wrist			R.Elbow			R.Wrist			R.PSIS			L.PSIS			
		X1	Y1	Z1	X2	Y2	Z2	X3	Y3	Z3	X4	Y4	Z4	X5	Y5	Z5	X6	Y6	Z6	X7	Y7	Z7	X8	Y8	Z8	X9	Y9	Z9	X10	Y10	Z10	X11	Y11	Z11	X12	Y12	Z12	X13	Y13	Z13	X14	Y14	Z14	X15	Y15	Z15	X16	Y16	Z16	X17	Y17	Z17	X18	Y18	Z18	X19	Y19	Z19	X20	Y20	Z20	X21	Y21	Z21	X22	Y22	Z22	X23	Y23	Z23	X24	Y24	Z24	X25	Y25	Z25	X26	Y26	Z26	X27	Y27	Z27	X28	Y28	Z28	X29	Y29	Z29	X30	Y30	Z30	X31	Y31	Z31	X32	Y32	Z32	X33	Y33	Z33	X34	Y34	Z34	X35	Y35	Z35	X36	Y36	Z36	X37	Y37	Z37	X38	Y38	Z38	X39	Y39	Z39	

147	0.972501424501	0.971796484116	0.107002437631	0.104405328789	1.098407801974	0.223503853378	0.149352486047	1.028927134320	0.130876596244	0.177627579806	1.215771751481	0.231650475545	0.192365241276	0.720542992115	0.042649787907	-0.221881176107	0.890820934586	0.096413501451	-0.214944699651	0.806637071863	0.033097471805	-0.268663768073	1.007773073286	0.057803410186	-0.204313202733	0.975683095535	0.455528731337	0.102203862738	1.005994403847	0.338814585166	0.121181922986	0.912814869628	0.373675709455	0.151169898214	0.848979404014	0.401969199737	0.072431235572	0.840424529281	0.371817722145	-0.230878730253	0.835157609229	0.239106883285	-0.231642153439	0.707202124375	0.339953287139	-0.265692519152	0.791020605774	0.280013924344	-0.301929037987	0.959950425478	0.576251835901	0.065107451544	0.861735403311	0.480010656938	-0.227222795817	0.862962215223	0.857203485375	0.032010853443	0.804772241579	0.773601232301	0.083704753018	0.923258956540	0.720326128487	0.031690697401	0.905349765627	0.773563065857	-0.240697233580	0.888755913474	0.617055330796	-0.221010946072	0.823369365881	0.706621431645	-0.311930514216	0.899204723544	0.931028175080	-0.222091605586	0.814049757665	0.974983388011	-0.000967004150	0.684595517155	1.009064959345	-0.174570119025	0.768724900907	1.412662847013	0.011265251485	0.905272504768	1.449155511341	-0.287433687405	0.792882757791	1.474683043729	-0.136788797259	0.908163009702	1.376570530388	-0.109030655658	0.945513626515	1.192766852938	-0.105090399614	0.710871331155	1.339797646983	-0.180200649976	0.892162326960	1.170803349064	-0.471896530337	1.060483416078	0.971032454538	-0.488510051431	0.752649062298	1.152847036694	0.218389428054	0.844276231573	0.989084695586	0.398692820366	0.673148225744	1.014122346489	-0.139383363636	0.698089044835	1.004532530744	-0.209517961413	
148	0.979162393162	0.964101631511	0.104373737272	0.101438923520	1.091694191698	0.219559243373	0.146965849547	1.021354028828	0.127493201444	0.174825306375	1.209066171870	0.226507163643	0.190171501566	0.720543666770	0.042648872181	-0.221882931857	0.890823407305	0.096415910353	-0.214953490440	0.806637635075	0.033095867137	-0.268664231200	1.007781262859	0.057813321829	-0.204311000232	0.971546529814	0.452922118390	0.100630313186	1.000611574700	0.335821185555	0.119151703734	0.907772212746	0.371536720257	0.149216770548	0.844338275310	0.400783155457	0.070532845466	0.840398248283	0.371883511060	-0.230755095889	0.835222605151	0.239111336071	-0.231613302950	0.707222795949	0.339938645786	-0.265818724161	0.791083065547	0.279995721774	-0.301972674042	0.957113226331	0.573969447186	0.064055711548	0.861757891902	0.480013365879	-0.227244820989	0.861932128680	0.855824506150	0.031642633364	0.803118177329	0.772406883019	0.083367537034	0.921532413622	0.718502352571	0.031369755772	0.905869133059	0.773520992630	-0.239831044774	0.888610668492	0.617087381405	-0.221005460310	0.823289754545	0.706550098107	-0.312052070206	0.899299412541	0.930874092057	-0.222033655308	0.813847201137	0.974836868703	-0.001058009095	0.684734299074	1.009208527152	-0.174843316316	0.768915390567	1.412681056579	0.011224810195	0.905676969261	1.449210950453	-0.287370229336	0.793205913044	1.474744745315	-0.136790699967	0.908410299543	1.376543398720	-0.108971789873	0.945647817709	1.192697721355	-0.105052618369	0.711179094044	1.339877858880	-0.180385727795	0.892286911007	1.170916709583	-0.471931246855	1.060452996047	0.971038597221	-0.488495001391	0.752660007506	1.152822487688	0.218342976205	0.844258993734	0.989082340795	0.398671201703	0.673255804087	1.014274467419	-0.139660828327	0.698267716013	1.004668161038	-0.209780340509	
149	0.985823361823	0.956334261384	0.101809717913	0.098426789467	1.084895895770	0.215665882114	0.144533734789	1.013696619422	0.124171376538	0.171977882511	1.202262219316	0.221410307257	0.187933503663	0.720544490434	0.042647954835	-0.221884394480	0.890827002782	0.096418157701	-0.214962995679	0.806638287114	0.033094371439	-0.268664468612	1.007790206421	0.057823462705	-0.204308524621	0.967386233610	0.450339186398	0.099036692191	0.995177052236	0.332863819087	0.117089798573	0.902694604211	0.369440320933	0.147238906113	0.839682834975	0.399653041102	0.068613799188	0.840381560268	0.371926058358	-0.230666132964	0.835293697870	0.239116283370	-0.231579221815	0.707245385991	0.339923435887	-0.265943621206	0.791144930552	0.279977515046	-0.302012456161	0.954278284203	0.571698574857	0.062995994466	0.861779611253	0.480015367737	-0.227260602608	0.860905342916	0.854464705801	0.031302755163	0.801466401590	0.771230604737	0.083033953557	0.919805859904	0.716692744517	0.031043373495	0.906378498853	0.773477633410	-0.238978131689	0.888473845352	0.617116568033	-0.220987167008	0.823233187192	0.706489267572	-0.312166327700	0.899395104049	0.930719275792	-0.221973769353	0.813651690054	0.974697259478	-0.001147564567	0.684876106221	1.009353416294	-0.175113574338	0.769111409947	1.412704956440	0.011189277257	0.906083825140	1.449268485514	-0.287303601770	0.793533609087	1.474810934107	-0.136788631185	0.908661070229	1.376518487178	-0.108907762043	0.945784916118	1.192629515896	-0.105007987346	0.711490548868	1.339958243177	-0.180570281578	0.892406121031	1.171031003118	-0.471963624324	1.060418093750	0.971045723189	-0.488477744475	0.752665345634	1.152798720701	0.218303507338	0.844241874710	0.989080132326	0.398650547510	0.673366554695	1.014428218274	-0.139935276401	0.698449036812	1.004804676292	-0.210040569126	
150	0.992484330484	0.948492088032	0.099313045547	0.095369366974	1.078011619897	0.211826424090	0.142054243820	1.005953402119	0.120913883508	0.169084733558	1.195358769180	0.216362126511	0.185647642800	0.720545443208	0.042647007370	-0.221885542482	0.890831633345	0.096420307809	-0.214973032582	0.806639006899	0.033092976770	-0.268664495886	1.007799833473	0.057833905878	-0.204305781489	0.963203437143	0.447780843077	0.097423085440	0.989690805728	0.329943855438	0.114995527244	0.897583501319	0.367388301438	0.145236488699	0.835014239311	0.398581145210	0.066675175466	0.840373601718	0.371945947070	-0.230611385974	0.835370008884	0.239121691550	-0.231540375525	0.707269392970	0.339907468664	-0.266067309588	0.791205841543	0.279959268627	-0.302048657948	0.951447846395	0.569439069270	0.061927992809	0.861799804434	0.480016565123	-0.227270906741	0.859885574335	0.853127811829	0.030993939001	0.799820823221	0.770073834979	0.082701415323	0.918081313756	0.714898790720	0.030710481759	0.906871038922	0.773432203009	-0.238148941343	0.888346887769	0.617142325943	-0.220956201355	0.823202456910	0.706439589561	-0.312272766914	0.899491265766	0.930563509168	-0.221912414959	0.813463601613	0.974564192131	-0.001235897136	0.685020769242	1.009500056042	-0.175380487905	0.769313658225	1.412734799887	0.011159217670	0.906493272340	1.449327986605	-0.287233532435	0.793866391756	1.474881771550	-0.136782066445	0.908915700010	1.376495687657	-0.108838277149	0.945925244257	1.192562038790	-0.104956235413	0.711806015016	1.340038746057	-0.180753847794	0.892519498683	1.171146241683	-0.471993717814	1.060378513514	0.971053842599	-0.488458259072	0.752665076022	1.152775891903	0.218271288090	0.844224920673	0.989078082033	0.398630956708	0.673480504268	1.014583997256	-0.140206213853	0.698632748109	1.004942492636	-0.210298335567	
